<?xml version="1.0" encoding="UTF-8" standalone="no"?>
<!DOCTYPE svg PUBLIC "-//W3C//DTD SVG 1.0//EN" "http://www.w3.org/TR/2001/REC-SVG-20010904/DTD/svg10.dtd">
<svg xmlns:svg="http://www.w3.org/2000/svg" xmlns="http://www.w3.org/2000/svg" version="1.0" width="503.1875" height="600" id="svg2">
  <defs id="defs4"/>
  <g transform="translate(-339.00446,270.69868)" id="layer1">
    <path d="M 590.62946,-270.69868 L 572.94196,-99.323677 L 572.19196,-92.136177 L 569.50446,-65.823677 C 576.46038,-66.844477 583.582,-67.386177 590.81696,-67.386177 C 597.90414,-67.386197 604.87802,-66.866757 611.69196,-65.886177 L 609.00446,-92.136177 L 608.25446,-99.136177 L 590.62946,-270.69868 z M 552.56696,-188.32368 L 514.56696,-163.01118 L 552.56696,-106.01118 L 552.56696,-188.32368 z M 628.62946,-188.32368 L 628.62946,-106.01118 L 666.62946,-163.01118 L 628.62946,-188.32368 z M 486.25446,-174.07368 L 508.87946,-72.323677 C 499.77536,-67.352257 491.1374,-61.617177 483.12946,-55.136177 L 420.37946,-92.511177 L 458.00446,-29.948677 C 451.44574,-21.894877 445.40244,-13.181757 440.37946,-4.011177 L 339.00446,-26.636177 L 426.50446,29.238823 C 423.57288,39.150803 421.4685,49.542043 420.37946,60.113823 L 349.87946,77.738823 L 420.37946,95.363823 C 421.46168,105.87254 423.60102,116.13144 426.50446,125.98882 L 339.00446,181.86382 L 440.37946,159.48882 C 445.42004,168.71222 451.41172,177.33078 458.00446,185.42632 L 420.37946,247.73882 L 482.94196,210.36382 C 491.00888,216.91386 499.69642,222.72382 508.87946,227.73882 L 486.25446,329.30132 L 542.12946,241.61382 C 552.11582,244.57326 562.35192,246.6444 573.00446,247.73882 L 590.62946,318.42632 L 608.19196,247.73882 C 618.84592,246.6565 629.14477,244.5625 639.12946,241.61382 L 694.94196,329.30132 L 672.37946,227.98882 C 681.56016,222.98858 690.25193,217.088 698.31696,210.55132 L 760.81696,247.73882 L 723.44196,185.42632 C 730.01788,177.33508 735.85236,168.70654 740.87946,159.48882 L 842.19196,181.86382 L 754.69196,125.98882 C 757.58876,116.13144 759.73744,105.87256 760.81696,95.363823 L 831.31696,77.738823 L 760.81696,60.113823 C 759.73068,49.542023 757.61676,39.150803 754.69196,29.238823 L 842.19196,-26.636177 L 740.87946,-4.011177 C 735.82426,-13.259577 729.86938,-22.086977 723.25446,-30.198677 L 760.81696,-92.511177 L 698.31696,-55.136177 C 690.27652,-61.652897 681.52902,-67.333757 672.37946,-72.323677 L 694.94196,-174.07368 L 639.00446,-86.386177 L 639.00446,-59.136177 C 695.44958,-39.269117 735.87946,14.467623 735.87946,77.738823 C 735.87946,157.9164 670.9946,222.98882 590.81696,222.98882 C 510.63932,222.98876 445.31696,157.91646 445.31696,77.738823 C 445.31696,14.598303 485.81894,-38.991437 542.19196,-58.948677 L 542.19196,-86.386177 L 486.25446,-174.07368 z M 590.62946,1.676323 C 548.66945,1.676323 514.56696,35.778823 514.56696,77.738823 C 514.56696,119.69884 548.66945,153.73882 590.62946,153.73882 C 632.58948,153.73882 666.62946,119.69884 666.62946,77.738823 C 666.62948,35.778823 632.58948,1.676323 590.62946,1.676323 z " style="opacity:1;fill:#000000;fill-opacity:1;stroke:none;stroke-width:6;stroke-miterlimit:4;stroke-dasharray:none;stroke-dashoffset:1.8;stroke-opacity:1" id="path2827"/>
  </g>
</svg>